<svg xmlns="http://www.w3.org/2000/svg" xmlns:xlink="http://www.w3.org/1999/xlink" width="1080" zoomAndPan="magnify" viewBox="0 0 810 809.999993" height="1080" preserveAspectRatio="xMidYMid meet" version="1.0"><defs><g/><clipPath id="7738a78593"><path d="M 0 302.042969 L 327 302.042969 L 327 508.292969 L 0 508.292969 Z M 0 302.042969 " clip-rule="nonzero"/></clipPath></defs><g clip-path="url(#7738a78593)"><path fill="#000000" d="M 323.414062 354.761719 L 320.042969 341.898438 L 320.148438 355.230469 C 320.183594 359.867188 319.863281 364.464844 319.144531 369.03125 C 318.785156 371.292969 318.355469 373.558594 317.78125 375.824219 C 317.527344 376.9375 317.207031 378.050781 316.917969 379.164062 L 316.417969 380.820312 L 316.164062 381.644531 L 315.878906 382.472656 C 314.40625 386.820312 312.609375 391.097656 310.421875 395.121094 C 309.632812 396.59375 308.804688 398.03125 307.910156 399.433594 C 307.945312 399.039062 307.980469 398.679688 308.015625 398.285156 L 308.160156 396.59375 L 308.269531 394.90625 C 308.554688 390.414062 308.625 385.921875 308.375 381.464844 C 307.910156 372.480469 306.367188 363.605469 303.816406 354.980469 C 303.492188 353.902344 303.132812 352.859375 302.777344 351.78125 L 302.238281 350.164062 L 301.664062 348.582031 C 301.269531 347.539062 300.910156 346.460938 300.476562 345.417969 L 299.1875 342.328125 C 297.390625 338.230469 295.34375 334.207031 293.082031 330.359375 C 288.5625 322.632812 283.140625 315.445312 276.894531 309.050781 L 270.144531 302.042969 L 274.488281 310.847656 C 275.890625 313.648438 277.183594 316.5625 278.367188 319.472656 C 279.515625 322.417969 280.554688 325.402344 281.453125 328.421875 C 282.386719 331.4375 283.105469 334.492188 283.785156 337.585938 C 284.398438 340.675781 284.933594 343.800781 285.257812 346.929688 C 285.941406 353.21875 286.121094 359.542969 285.617188 365.832031 C 285.367188 369.03125 285.007812 372.230469 284.46875 375.390625 C 283.929688 373.628906 283.320312 371.871094 282.636719 370.144531 L 279.550781 362.417969 L 278.582031 370.613281 C 277.9375 375.246094 277.144531 379.847656 276.035156 384.375 C 275.496094 386.640625 274.921875 388.90625 274.203125 391.132812 C 273.878906 392.246094 273.519531 393.359375 273.160156 394.476562 C 272.765625 395.589844 272.40625 396.703125 272.011719 397.78125 C 270.398438 402.164062 268.601562 406.476562 266.449219 410.683594 C 265.410156 412.769531 264.296875 414.851562 263.109375 416.863281 C 262.535156 417.871094 261.925781 418.878906 261.28125 419.882812 L 260.992188 420.316406 C 260.742188 418.769531 260.417969 417.222656 260.058594 415.714844 L 258.945312 411.113281 L 256.6875 415.355469 C 253.203125 421.894531 249.074219 428.078125 244.15625 433.46875 C 242.9375 434.796875 241.644531 436.128906 240.316406 437.347656 C 238.988281 438.570312 237.589844 439.722656 236.152344 440.835938 C 233.246094 443.027344 230.121094 445.039062 226.964844 447.015625 L 222.191406 450.035156 C 221.398438 450.539062 220.574219 451.078125 219.785156 451.582031 C 218.996094 452.085938 218.242188 452.585938 217.453125 453.089844 C 214.292969 455.066406 211.027344 456.972656 207.867188 459.09375 C 206.25 460.132812 204.707031 461.210938 203.128906 462.363281 C 201.585938 463.546875 200.113281 464.84375 198.75 466.28125 C 197.386719 467.71875 196.199219 469.296875 195.160156 471.023438 C 194.296875 472.53125 193.617188 474.113281 193.148438 475.765625 L 190.671875 475.445312 C 189.667969 475.335938 188.699219 475.15625 187.695312 475.011719 C 186.902344 474.90625 186.148438 474.761719 185.324219 474.617188 C 185.179688 474.078125 184.964844 473.574219 184.714844 473.070312 C 185.074219 473.070312 185.433594 473.070312 185.792969 473.070312 C 186.402344 473.070312 186.976562 473 187.550781 472.929688 C 188.734375 472.75 189.882812 472.460938 190.996094 472.066406 L 193.6875 471.132812 L 190.886719 470.699219 L 187.765625 470.195312 L 186.1875 469.945312 C 185.792969 469.875 185.359375 469.835938 184.964844 469.765625 C 185.863281 469.476562 186.726562 469.117188 187.550781 468.6875 C 189.917969 467.539062 192 465.921875 193.761719 463.980469 L 195.015625 462.578125 L 193.222656 463.082031 C 191.285156 463.621094 189.238281 463.90625 187.226562 463.945312 C 186.222656 463.980469 185.179688 463.90625 184.175781 463.800781 C 183.671875 463.765625 183.171875 463.65625 182.667969 463.585938 C 182.164062 463.476562 181.664062 463.367188 181.160156 463.226562 C 179.546875 462.828125 178.039062 462.148438 176.566406 461.355469 L 178.933594 458.335938 L 175.34375 460.636719 C 174.554688 460.132812 173.765625 459.632812 173.011719 459.054688 C 172.367188 458.554688 171.71875 458.050781 171.109375 457.476562 C 171.578125 456.683594 172.007812 455.859375 172.332031 455.03125 C 172.761719 453.988281 173.046875 452.910156 173.300781 451.796875 L 174.59375 445.257812 L 169.996094 450.035156 C 168.957031 451.148438 167.808594 452.15625 166.550781 453.054688 C 165.941406 453.523438 165.292969 453.953125 164.648438 454.347656 C 164.003906 454.742188 163.320312 455.140625 162.601562 455.460938 C 161.203125 456.144531 159.730469 456.757812 158.1875 457.222656 C 156.644531 457.691406 155.027344 458.050781 153.378906 458.375 C 155.027344 458.839844 156.75 459.019531 158.472656 458.984375 C 160.199219 458.949219 161.957031 458.660156 163.644531 458.15625 C 164.757812 457.835938 165.832031 457.402344 166.910156 456.898438 C 166.621094 457.296875 166.300781 457.726562 165.976562 458.085938 C 165.832031 458.265625 165.691406 458.410156 165.511719 458.589844 C 165.367188 458.769531 165.1875 458.914062 165.042969 459.054688 C 164.863281 459.199219 164.71875 459.378906 164.578125 459.523438 C 164.398438 459.667969 164.21875 459.8125 164.074219 459.953125 C 163.390625 460.53125 162.636719 461.03125 161.8125 461.5 C 161.023438 461.96875 160.160156 462.328125 159.265625 462.6875 C 157.46875 463.332031 155.53125 463.800781 153.484375 464.015625 C 155.421875 464.734375 157.578125 464.914062 159.730469 464.699219 C 161.847656 464.445312 164.039062 463.800781 165.941406 462.613281 C 166.191406 462.46875 166.40625 462.328125 166.660156 462.183594 C 166.875 462.039062 167.089844 461.859375 167.339844 461.679688 C 167.554688 461.5 167.808594 461.355469 168.023438 461.140625 C 168.238281 460.960938 168.453125 460.78125 168.632812 460.566406 C 169.457031 459.773438 170.175781 458.914062 170.824219 457.976562 C 170.894531 457.90625 170.929688 457.796875 170.964844 457.726562 C 171.539062 458.300781 172.1875 458.839844 172.796875 459.34375 C 173.480469 459.882812 174.195312 460.386719 174.914062 460.890625 L 169.316406 464.484375 C 168.347656 465.128906 167.304688 465.667969 166.226562 466.136719 C 165.152344 466.601562 164.039062 467 162.890625 467.320312 C 161.742188 467.609375 160.519531 467.824219 159.300781 467.933594 C 158.042969 468.039062 156.789062 468.039062 155.421875 467.96875 C 156.535156 468.757812 157.792969 469.335938 159.121094 469.695312 C 160.449219 470.054688 161.847656 470.234375 163.285156 470.195312 C 163.285156 470.195312 163.285156 470.195312 163.320312 470.195312 C 163.035156 470.414062 162.710938 470.664062 162.421875 470.878906 C 161.203125 471.742188 159.945312 472.570312 158.617188 473.289062 C 157.289062 474.042969 155.855469 474.726562 154.382812 475.445312 C 155.996094 475.660156 157.683594 475.550781 159.300781 475.265625 C 160.914062 474.976562 162.53125 474.4375 164.074219 473.71875 C 165.582031 473 167.054688 472.101562 168.347656 471.023438 C 169.675781 469.945312 170.859375 468.722656 171.898438 467.394531 L 176.316406 461.75 C 177.785156 462.648438 179.367188 463.40625 181.054688 463.871094 C 181.554688 464.015625 182.058594 464.160156 182.597656 464.265625 C 183.097656 464.375 183.636719 464.484375 184.140625 464.554688 C 185.179688 464.699219 186.222656 464.804688 187.300781 464.804688 C 188.769531 464.84375 190.242188 464.734375 191.714844 464.484375 C 190.3125 465.703125 188.734375 466.710938 187.082031 467.464844 C 184.859375 468.472656 182.417969 469.082031 180.011719 469.191406 L 176.316406 469.371094 L 179.832031 470.699219 C 181.125 471.203125 182.308594 472.101562 183.027344 473.289062 C 183.386719 473.863281 183.671875 474.507812 183.816406 475.191406 C 183.925781 475.660156 183.996094 476.164062 183.996094 476.628906 C 180.730469 477.457031 177.285156 477.382812 174.089844 476.414062 L 170.285156 475.265625 L 173.046875 478.140625 C 174.089844 479.21875 174.769531 480.582031 175.023438 482.019531 C 175.128906 482.738281 175.167969 483.496094 175.058594 484.214844 C 174.988281 484.753906 174.84375 485.253906 174.664062 485.757812 C 172.867188 486.082031 171.003906 486.117188 169.171875 485.902344 C 167.160156 485.652344 165.222656 485.039062 163.390625 484.105469 L 160.054688 482.378906 L 161.632812 485.867188 C 161.957031 486.550781 162.171875 487.269531 162.28125 488.023438 C 162.386719 488.777344 162.421875 489.496094 162.351562 490.25 C 162.28125 491.003906 162.101562 491.722656 161.8125 492.40625 C 161.707031 492.695312 161.5625 492.980469 161.453125 493.234375 C 160.664062 492.765625 159.910156 492.226562 159.191406 491.617188 C 158.152344 490.71875 157.253906 489.710938 156.464844 488.597656 L 154.632812 486.046875 L 153.59375 489.066406 C 153.125 490.464844 152.515625 491.832031 151.796875 493.125 C 151.222656 494.167969 150.578125 495.136719 149.894531 496.109375 C 149.429688 496.035156 148.960938 495.929688 148.53125 495.75 C 147.847656 495.496094 147.167969 495.136719 146.628906 494.636719 C 146.054688 494.167969 145.550781 493.59375 145.191406 492.945312 C 144.796875 492.300781 144.511719 491.582031 144.367188 490.863281 L 143.289062 485.832031 L 141.386719 490.539062 C 140.886719 491.761719 140.277344 492.910156 139.523438 494.023438 C 138.984375 494.816406 138.410156 495.535156 137.761719 496.253906 C 137.511719 496.035156 137.261719 495.75 137.042969 495.496094 C 136.613281 494.921875 136.253906 494.277344 136.113281 493.558594 C 135.933594 492.875 135.894531 492.121094 136.039062 491.363281 C 136.113281 491.003906 136.183594 490.609375 136.328125 490.25 C 136.398438 490.070312 136.46875 489.890625 136.542969 489.675781 L 136.6875 489.386719 L 136.757812 489.207031 L 136.792969 489.101562 L 136.828125 489.027344 L 136.867188 488.921875 L 138.265625 484.609375 L 135.105469 487.808594 C 134.675781 488.238281 134.351562 488.632812 134.03125 488.992188 C 133.707031 489.351562 133.347656 489.710938 132.988281 490 C 132.269531 490.644531 131.480469 491.113281 130.582031 491.507812 C 130.152344 491.6875 129.6875 491.867188 129.21875 491.976562 C 128.753906 492.121094 128.25 492.191406 127.785156 492.261719 C 126.851562 492.40625 125.882812 492.40625 124.910156 492.300781 C 124.625 492.046875 124.335938 491.722656 124.121094 491.363281 C 123.871094 490.96875 123.691406 490.503906 123.621094 490.035156 C 123.546875 489.566406 123.582031 489.066406 123.65625 488.597656 C 123.726562 488.238281 123.800781 487.878906 123.90625 487.519531 C 123.941406 487.554688 124.015625 487.589844 124.050781 487.628906 C 125.414062 488.382812 126.992188 488.847656 128.644531 488.777344 C 130.261719 488.707031 131.875 488.023438 133.132812 486.980469 C 133.457031 486.730469 133.742188 486.441406 134.03125 486.152344 C 134.316406 485.832031 134.566406 485.507812 134.820312 485.148438 C 135.285156 484.429688 135.539062 483.636719 135.824219 482.957031 C 136.074219 482.273438 136.328125 481.625 136.613281 480.980469 C 136.902344 480.332031 137.222656 479.722656 137.546875 479.109375 C 138.230469 477.886719 139.054688 476.738281 139.953125 475.585938 C 140.886719 474.4375 141.746094 473.359375 142.714844 472.28125 C 143.183594 471.742188 143.722656 471.203125 144.1875 470.449219 C 144.4375 470.089844 144.617188 469.65625 144.726562 469.226562 C 144.796875 469.011719 144.796875 468.796875 144.835938 468.578125 C 144.871094 468.398438 144.871094 468.183594 144.90625 468.003906 C 144.976562 467.214844 144.941406 466.421875 144.796875 465.632812 C 144.65625 464.84375 144.367188 464.050781 143.792969 463.40625 C 143.253906 462.757812 142.464844 462.398438 141.710938 462.21875 C 140.957031 462.039062 140.167969 461.96875 139.449219 461.96875 C 137.941406 461.929688 136.46875 462.109375 135 462.183594 C 133.527344 462.289062 132.054688 462.542969 130.835938 461.96875 C 130.226562 461.714844 129.648438 461.320312 129.183594 460.816406 C 128.933594 460.566406 128.71875 460.277344 128.5 460.027344 C 128.285156 459.738281 128.105469 459.453125 127.925781 459.164062 C 127.570312 458.589844 127.351562 457.941406 127.066406 457.222656 C 126.816406 456.539062 126.527344 455.785156 126.167969 455.101562 C 125.773438 454.347656 125.34375 453.664062 124.804688 453.019531 C 125.199219 452.40625 125.664062 451.832031 126.132812 451.367188 C 126.816406 450.71875 127.605469 450.324219 128.359375 450.179688 C 128.71875 450.144531 129.113281 450.144531 129.578125 450.179688 C 130.046875 450.214844 130.582031 450.289062 131.15625 450.289062 C 131.730469 450.289062 132.34375 450.214844 132.953125 450.109375 C 133.5625 450 134.101562 449.820312 134.675781 449.570312 C 135.25 449.316406 135.789062 449.03125 136.253906 448.671875 C 136.757812 448.347656 137.1875 447.988281 137.582031 447.628906 C 138.410156 446.910156 139.125 446.226562 139.878906 445.4375 C 140.886719 444.394531 141.746094 443.242188 142.5 442.058594 C 142.5 442.09375 142.535156 442.09375 142.535156 442.128906 C 142.824219 442.847656 142.96875 443.636719 143.039062 444.429688 C 143.074219 445.21875 143.003906 446.046875 142.824219 446.875 C 142.679688 447.484375 142.5 448.132812 142.285156 448.742188 C 142.214844 448.777344 142.105469 448.8125 142.035156 448.8125 C 141.746094 448.921875 141.425781 449.066406 141.136719 449.210938 C 140.851562 449.351562 140.527344 449.53125 140.277344 449.710938 C 139.738281 450.070312 139.234375 450.46875 138.769531 450.863281 C 137.835938 451.652344 137.042969 452.445312 136.148438 453.089844 C 135.25 453.773438 134.316406 454.277344 133.238281 454.707031 C 132.164062 455.140625 131.050781 455.5 129.867188 455.785156 C 131.050781 455.929688 132.234375 455.894531 133.417969 455.714844 C 134.136719 456.792969 135.105469 457.726562 136.363281 458.300781 C 136.972656 458.589844 137.65625 458.769531 138.371094 458.839844 C 139.089844 458.914062 139.808594 458.839844 140.492188 458.660156 C 141.855469 458.300781 143.109375 457.582031 144.117188 456.613281 C 144.617188 456.144531 145.085938 455.605469 145.480469 454.996094 C 145.804688 454.492188 146.089844 453.988281 146.304688 453.449219 C 146.34375 453.449219 146.378906 453.449219 146.414062 453.449219 C 147.632812 453.59375 148.855469 453.558594 150.039062 453.304688 C 151.222656 453.054688 152.371094 452.585938 153.304688 451.832031 C 152.121094 452.011719 151.007812 452.15625 149.894531 452.15625 C 148.78125 452.191406 147.671875 452.15625 146.59375 452.011719 C 146.054688 451.941406 145.550781 451.832031 144.976562 451.6875 C 144.402344 451.546875 143.828125 451.4375 143.21875 451.367188 C 142.714844 451.292969 142.179688 451.257812 141.640625 451.257812 C 141.746094 451.1875 141.890625 451.113281 142.035156 451.078125 C 142.285156 450.96875 142.535156 450.863281 142.789062 450.753906 C 144.796875 450 147.058594 449.675781 149.355469 449.640625 C 150.503906 449.605469 151.761719 449.605469 152.984375 449.351562 C 153.59375 449.210938 154.203125 449.03125 154.742188 448.742188 C 155.28125 448.453125 155.820312 448.058594 156.175781 447.59375 C 155.136719 448.167969 153.988281 448.347656 152.875 448.3125 C 151.761719 448.273438 150.613281 448.09375 149.429688 447.953125 C 147.203125 447.699219 144.871094 447.808594 142.644531 448.527344 C 143.003906 448.058594 143.328125 447.59375 143.613281 447.054688 C 144.042969 446.261719 144.367188 445.363281 144.511719 444.394531 C 144.691406 443.457031 144.617188 442.488281 144.511719 441.519531 C 144.367188 440.546875 144.042969 439.578125 143.578125 438.679688 L 143.46875 438.464844 C 144.511719 438.355469 145.550781 438.246094 146.59375 438.066406 C 147.886719 437.851562 149.175781 437.566406 150.46875 437.207031 C 153.054688 436.488281 155.566406 435.445312 157.863281 433.972656 C 160.160156 432.535156 162.242188 430.664062 163.929688 428.582031 C 164.792969 427.539062 165.546875 426.425781 166.226562 425.238281 C 166.265625 425.417969 166.335938 425.632812 166.371094 425.8125 C 166.550781 426.53125 166.695312 427.285156 166.839844 428.003906 C 166.910156 428.363281 166.945312 428.722656 167.019531 429.121094 C 167.054688 429.480469 167.089844 429.839844 167.089844 430.199219 C 167.125 431.671875 166.980469 433.214844 166.765625 434.726562 C 166.621094 435.804688 166.445312 436.882812 166.226562 437.960938 C 165.691406 438.5 165.078125 439.039062 164.46875 439.542969 C 163.570312 440.261719 162.601562 440.90625 161.5625 441.589844 C 162.78125 441.660156 164.039062 441.480469 165.257812 441.160156 C 166.480469 440.800781 167.664062 440.261719 168.742188 439.613281 C 169.101562 439.398438 169.421875 439.144531 169.746094 438.894531 C 169.675781 439.253906 169.566406 439.613281 169.457031 439.972656 C 169.242188 440.691406 168.992188 441.410156 168.667969 442.128906 C 168.058594 443.53125 167.234375 444.859375 166.226562 446.15625 C 165.222656 447.449219 164.003906 448.632812 162.636719 449.820312 C 164.46875 449.640625 166.226562 448.992188 167.808594 447.953125 C 169.386719 446.945312 170.824219 445.578125 171.898438 443.960938 C 172.1875 443.566406 172.402344 443.136719 172.652344 442.703125 C 172.867188 442.273438 173.085938 441.839844 173.265625 441.375 C 173.660156 440.476562 173.945312 439.503906 174.125 438.570312 C 174.519531 436.628906 174.554688 434.652344 174.195312 432.714844 L 173.046875 426.246094 L 170.285156 432.066406 C 170.070312 432.535156 169.855469 433 169.601562 433.46875 C 169.351562 433.933594 169.101562 434.367188 168.777344 434.796875 C 168.203125 435.660156 167.554688 436.523438 166.800781 437.3125 C 166.765625 437.347656 166.730469 437.386719 166.730469 437.386719 C 166.765625 437.3125 166.800781 437.242188 166.800781 437.167969 C 167.089844 436.449219 167.339844 435.695312 167.59375 434.941406 C 168.058594 433.433594 168.453125 431.921875 168.667969 430.269531 C 168.847656 428.617188 168.8125 427 168.632812 425.417969 C 168.5625 424.628906 168.453125 423.835938 168.347656 423.046875 C 168.238281 422.253906 168.128906 421.5 168.023438 420.78125 L 167.519531 416.363281 L 165.222656 420.386719 C 162.855469 424.554688 159.585938 428.078125 155.601562 430.339844 C 153.59375 431.492188 151.4375 432.355469 149.175781 433 C 147.417969 433.503906 145.589844 433.863281 143.757812 434.113281 C 143.863281 434.007812 143.972656 433.933594 144.117188 433.828125 C 144.871094 433.144531 145.589844 432.425781 146.234375 431.636719 C 147.527344 430.054688 148.601562 428.222656 149.320312 426.246094 C 149.714844 425.273438 150.003906 424.269531 150.253906 423.226562 C 150.542969 422.183594 150.683594 421.105469 150.757812 420.0625 C 150.902344 417.90625 150.683594 415.714844 150.074219 413.628906 L 148.246094 407.269531 L 146.054688 413.628906 C 145.410156 415.5 144.65625 417.296875 143.648438 418.839844 C 143.148438 419.632812 142.574219 420.351562 141.960938 420.996094 C 141.316406 421.644531 140.671875 422.21875 139.84375 422.757812 C 139.054688 423.296875 138.085938 423.835938 137.152344 424.519531 C 136.21875 425.203125 135.320312 425.992188 134.566406 426.890625 C 133.058594 428.652344 132.019531 430.738281 131.589844 432.894531 C 132.988281 431.203125 134.496094 429.730469 136.148438 428.617188 C 136.363281 428.472656 136.542969 428.328125 136.757812 428.222656 C 136.972656 428.078125 137.1875 427.96875 137.402344 427.863281 C 137.835938 427.644531 138.265625 427.429688 138.730469 427.214844 C 139.628906 426.820312 140.597656 426.460938 141.675781 425.957031 C 142.714844 425.453125 143.792969 424.769531 144.726562 423.980469 C 145.660156 423.191406 146.484375 422.253906 147.167969 421.285156 C 147.167969 421.285156 147.167969 421.25 147.203125 421.25 C 147.203125 421.753906 147.203125 422.292969 147.167969 422.792969 C 147.097656 423.691406 146.953125 424.628906 146.773438 425.527344 C 146.378906 427.324219 145.765625 429.121094 144.941406 430.808594 C 144.511719 431.671875 144.042969 432.496094 143.507812 433.324219 C 143.289062 433.683594 143.039062 434.007812 142.789062 434.332031 C 142.609375 434.367188 142.429688 434.367188 142.25 434.402344 L 140.417969 434.617188 C 139.808594 434.691406 139.234375 434.726562 138.625 434.761719 C 137.441406 434.832031 136.21875 434.871094 134.925781 434.90625 C 133.636719 434.941406 132.234375 435.085938 130.871094 435.410156 C 129.9375 435.625 129.039062 435.910156 128.214844 436.269531 C 128.644531 435.445312 129.003906 434.582031 129.253906 433.683594 C 129.648438 432.355469 129.828125 431.023438 130.046875 429.695312 C 130.261719 428.328125 130.296875 426.890625 130.1875 425.488281 C 130.082031 424.089844 129.828125 422.6875 129.433594 421.285156 L 127.03125 413.019531 L 125.882812 421.789062 C 125.808594 422.433594 125.664062 423.082031 125.488281 423.691406 C 125.308594 424.304688 125.089844 424.914062 124.839844 425.488281 C 124.589844 426.066406 124.300781 426.640625 123.980469 427.144531 C 123.65625 427.644531 123.296875 428.113281 122.867188 428.617188 C 122.003906 429.585938 120.925781 430.59375 119.921875 431.636719 C 119.421875 432.136719 118.917969 432.640625 118.414062 433.109375 C 117.914062 433.574219 117.410156 434.042969 116.835938 434.511719 C 116.546875 434.761719 116.226562 435.050781 115.902344 435.371094 C 115.578125 435.695312 115.257812 436.089844 115.003906 436.449219 C 114.71875 436.808594 114.539062 437.167969 114.324219 437.492188 C 114.144531 437.816406 113.929688 438.175781 113.75 438.535156 C 113.390625 439.253906 113.066406 440.082031 112.816406 440.90625 C 112.601562 441.734375 112.492188 442.632812 112.527344 443.496094 C 112.5625 443.925781 112.601562 444.359375 112.707031 444.789062 C 112.816406 445.21875 112.957031 445.617188 113.066406 446.011719 C 113.355469 446.765625 113.75 447.519531 114.214844 448.167969 C 114.859375 449.101562 115.757812 449.855469 116.691406 450.324219 C 115.21875 450.359375 113.710938 450.539062 112.3125 450.898438 C 110.949219 451.222656 109.546875 451.652344 108.21875 452.371094 C 107.503906 451.832031 106.75 451.328125 106.03125 450.789062 C 103.625 449.101562 101.183594 447.484375 98.707031 445.976562 C 97.488281 445.183594 96.230469 444.464844 95.046875 443.675781 C 93.863281 442.921875 92.714844 442.128906 91.601562 441.300781 C 87.148438 437.960938 83.199219 433.933594 79.683594 429.515625 L 78.390625 427.824219 L 77.171875 426.101562 C 76.738281 425.527344 76.34375 424.949219 75.949219 424.339844 C 75.554688 423.765625 75.160156 423.191406 74.765625 422.578125 C 73.222656 420.207031 71.820312 417.726562 70.457031 415.210938 L 68.015625 410.71875 L 66.832031 415.570312 C 66.472656 417.007812 66.1875 418.445312 65.933594 419.882812 C 61.519531 413.128906 57.859375 405.9375 55.023438 398.390625 C 54.160156 396.164062 53.40625 393.863281 52.691406 391.5625 C 52.007812 389.265625 51.363281 386.964844 50.824219 384.628906 C 49.746094 379.957031 48.921875 375.210938 48.453125 370.46875 L 47.628906 361.914062 L 44.398438 370.035156 C 43.824219 371.4375 43.355469 372.839844 42.890625 374.277344 C 42.386719 371.1875 41.992188 368.058594 41.777344 364.933594 C 41.347656 358.753906 41.453125 352.5 42.136719 346.316406 C 42.28125 344.773438 42.53125 343.226562 42.746094 341.683594 C 42.855469 340.925781 42.996094 340.136719 43.140625 339.382812 C 43.285156 338.628906 43.394531 337.835938 43.570312 337.082031 C 43.894531 335.570312 44.21875 334.027344 44.613281 332.515625 C 44.972656 331.007812 45.402344 329.5 45.832031 328.023438 C 46.730469 325.042969 47.734375 322.09375 48.847656 319.183594 C 49.996094 316.273438 51.253906 313.433594 52.617188 310.632812 L 56.890625 302.042969 L 49.960938 309.121094 C 43.75 315.519531 38.332031 322.707031 33.773438 330.433594 C 31.511719 334.3125 29.5 338.304688 27.671875 342.402344 L 26.378906 345.492188 C 25.945312 346.535156 25.589844 347.574219 25.195312 348.652344 L 24.617188 350.234375 L 24.082031 351.851562 C 23.722656 352.929688 23.363281 353.972656 23.039062 355.050781 C 20.492188 363.640625 18.949219 372.550781 18.480469 381.539062 C 18.265625 386.03125 18.300781 390.523438 18.589844 394.976562 L 18.695312 396.667969 L 18.839844 398.355469 C 18.875 398.714844 18.910156 399.109375 18.949219 399.46875 C 18.085938 398.070312 17.222656 396.632812 16.433594 395.15625 C 14.246094 391.132812 12.449219 386.855469 10.980469 382.507812 L 10.691406 381.679688 L 10.441406 380.855469 L 9.9375 379.203125 C 9.652344 378.085938 9.328125 376.972656 9.078125 375.859375 C 8.539062 373.628906 8.070312 371.367188 7.710938 369.066406 C 6.996094 364.503906 6.671875 359.902344 6.707031 355.265625 L 6.816406 341.863281 L 3.441406 354.761719 C 1.179688 363.820312 0.0664062 373.199219 0.136719 382.507812 C 0.175781 387.179688 0.53125 391.816406 1.179688 396.453125 C 1.824219 401.050781 2.832031 405.617188 4.050781 410.109375 L 5.054688 413.449219 C 5.199219 414.027344 5.414062 414.566406 5.59375 415.105469 L 6.742188 418.410156 C 6.957031 418.949219 7.171875 419.488281 7.390625 420.027344 L 8.035156 421.644531 C 8.25 422.183594 8.464844 422.722656 8.71875 423.261719 C 10.546875 427.464844 12.703125 431.5625 15.070312 435.550781 C 19.84375 443.496094 25.625 450.789062 32.265625 457.152344 C 30.683594 455.5 29.140625 453.773438 27.671875 452.011719 C 26.953125 451.113281 26.199219 450.25 25.515625 449.316406 L 24.441406 447.953125 L 23.398438 446.585938 C 20.671875 442.882812 18.195312 439.039062 15.96875 435.011719 C 13.742188 430.988281 11.769531 426.855469 10.117188 422.613281 C 8.464844 418.339844 7.03125 414.027344 5.917969 409.605469 C 4.839844 405.183594 3.980469 400.691406 3.476562 396.164062 C 2.972656 391.636719 2.722656 387.109375 2.792969 382.542969 C 2.867188 378.015625 3.226562 373.449219 3.871094 368.957031 L 4.015625 368.097656 C 4.085938 368.597656 4.121094 369.066406 4.195312 369.570312 C 4.515625 371.941406 4.949219 374.3125 5.488281 376.6875 C 5.738281 377.871094 6.0625 379.023438 6.347656 380.207031 L 6.851562 381.933594 L 7.101562 382.796875 L 7.390625 383.65625 C 8.859375 388.257812 10.691406 392.714844 12.917969 396.992188 C 15.140625 401.265625 17.761719 405.363281 20.671875 409.210938 L 25.839844 416.039062 L 24.402344 407.554688 C 22.96875 399.039062 22.394531 390.378906 22.894531 381.753906 C 23.148438 377.441406 23.613281 373.164062 24.332031 368.886719 C 24.476562 367.808594 24.726562 366.765625 24.90625 365.6875 C 25.015625 365.148438 25.121094 364.644531 25.230469 364.105469 L 25.589844 362.527344 C 25.839844 361.484375 26.054688 360.40625 26.378906 359.398438 L 27.203125 356.273438 C 27.492188 355.230469 27.851562 354.222656 28.171875 353.183594 L 28.640625 351.636719 L 29.179688 350.128906 C 29.535156 349.121094 29.894531 348.078125 30.289062 347.074219 L 31.511719 344.054688 C 33.199219 340.0625 35.066406 336.183594 37.148438 332.410156 C 39.625 328.097656 42.28125 323.964844 45.1875 320.011719 C 44.289062 322.417969 43.464844 324.863281 42.746094 327.34375 C 42.316406 328.886719 41.847656 330.433594 41.488281 331.976562 C 41.09375 333.523438 40.773438 335.105469 40.414062 336.648438 C 40.234375 337.441406 40.125 338.230469 39.984375 339.023438 C 39.839844 339.8125 39.695312 340.601562 39.585938 341.394531 C 39.371094 342.976562 39.121094 344.558594 38.976562 346.136719 C 38.296875 352.5 38.152344 358.933594 38.617188 365.328125 C 39.011719 370.71875 39.839844 376.074219 41.023438 381.359375 C 40.378906 384.304688 39.910156 387.289062 39.515625 390.269531 C 38.691406 397.097656 38.402344 404 38.796875 410.863281 C 38.832031 411.726562 38.90625 412.589844 38.976562 413.414062 C 39.050781 414.277344 39.121094 415.105469 39.191406 415.964844 L 39.515625 418.519531 L 39.660156 419.777344 L 39.839844 421.035156 L 40.234375 423.550781 L 40.699219 426.066406 C 40.773438 426.496094 40.84375 426.890625 40.953125 427.324219 L 41.238281 428.582031 C 41.417969 429.40625 41.597656 430.234375 41.8125 431.058594 C 42.601562 434.367188 43.570312 437.636719 44.648438 440.871094 C 45.726562 444.105469 46.945312 447.269531 48.273438 450.394531 C 46.050781 443.996094 44.398438 437.421875 43.214844 430.773438 C 43.070312 429.945312 42.960938 429.121094 42.816406 428.292969 L 42.640625 427.035156 C 42.566406 426.605469 42.53125 426.207031 42.496094 425.777344 L 42.171875 423.261719 L 41.957031 420.746094 L 41.777344 419.558594 L 41.707031 418.300781 L 41.5625 415.785156 C 41.527344 414.960938 41.527344 414.097656 41.488281 413.269531 C 41.488281 412.445312 41.453125 411.582031 41.453125 410.753906 C 41.453125 404.070312 42.101562 397.386719 43.25 390.84375 C 43.894531 387.289062 44.757812 383.765625 45.726562 380.28125 C 46.121094 382.113281 46.515625 383.910156 46.980469 385.742188 C 47.628906 388.148438 48.308594 390.523438 49.101562 392.894531 C 49.890625 395.230469 50.714844 397.566406 51.683594 399.867188 C 55.167969 408.5625 59.761719 416.757812 65.289062 424.304688 C 65.21875 425.09375 65.144531 425.886719 65.109375 426.710938 C 65 428.542969 65 430.414062 65.074219 432.246094 C 65.144531 434.078125 65.324219 435.910156 65.578125 437.746094 C 65.71875 438.644531 65.863281 439.542969 66.042969 440.441406 L 66.292969 441.769531 L 66.617188 443.097656 C 67.046875 444.859375 67.585938 446.621094 68.160156 448.347656 C 68.769531 450.070312 69.453125 451.761719 70.207031 453.378906 C 70.960938 455.03125 71.820312 456.613281 72.753906 458.15625 C 72.074219 456.503906 71.5 454.816406 70.960938 453.089844 C 70.671875 452.226562 70.457031 451.402344 70.207031 450.539062 C 69.957031 449.675781 69.738281 448.8125 69.5625 447.953125 C 69.164062 446.226562 68.84375 444.464844 68.589844 442.738281 L 68.410156 441.445312 L 68.339844 440.042969 C 68.234375 439.183594 68.195312 438.285156 68.125 437.421875 C 67.945312 433.898438 68.054688 430.414062 68.449219 426.964844 C 68.664062 425.203125 68.949219 423.476562 69.308594 421.753906 C 71.320312 425.417969 73.582031 428.976562 76.164062 432.316406 C 77.996094 434.691406 79.96875 436.953125 82.089844 439.074219 C 84.242188 441.195312 86.503906 443.171875 88.945312 444.933594 C 90.164062 445.796875 91.421875 446.65625 92.714844 447.414062 C 93.96875 448.167969 95.261719 448.921875 96.484375 449.640625 C 98.996094 451.078125 101.472656 452.515625 103.914062 454.023438 C 104.308594 454.277344 104.738281 454.527344 105.132812 454.816406 C 104.453125 455.535156 103.839844 456.359375 103.375 457.222656 C 102.476562 458.875 101.972656 460.710938 101.757812 462.542969 C 101.652344 463.441406 101.652344 464.375 101.6875 465.273438 C 101.722656 466.207031 101.832031 467.070312 102.046875 468.039062 C 102.261719 468.9375 102.550781 469.835938 102.945312 470.699219 C 103.339844 471.5625 103.769531 472.351562 104.308594 473.144531 C 105.347656 474.6875 106.640625 476.019531 108.148438 477.132812 L 110.984375 479.253906 L 110.121094 475.804688 C 109.726562 474.507812 109.765625 473.109375 110.300781 471.886719 C 110.839844 470.664062 111.882812 469.65625 113.136719 468.9375 C 113.460938 468.757812 113.785156 468.578125 114.144531 468.398438 C 114.503906 468.21875 114.824219 468.078125 115.148438 467.96875 C 115.832031 467.71875 116.585938 467.574219 117.339844 467.464844 C 118.882812 467.25 120.460938 467.140625 122.039062 467.140625 C 123.621094 467.105469 125.199219 467.214844 126.777344 467.359375 C 127.566406 467.429688 128.394531 467.5 129.183594 467.574219 C 130.007812 467.609375 130.800781 467.644531 131.625 467.679688 C 133.238281 467.71875 134.890625 467.679688 136.46875 467.429688 C 136.902344 467.359375 137.332031 467.285156 137.761719 467.179688 C 137.082031 468.039062 136.507812 468.9375 136.039062 469.945312 C 135.789062 470.519531 135.539062 471.09375 135.359375 471.707031 C 135.179688 472.316406 135.070312 472.929688 134.960938 473.539062 C 134.605469 475.984375 133.5625 478.320312 131.984375 480.152344 C 131.589844 480.621094 131.121094 481.050781 130.65625 481.410156 C 130.1875 481.769531 129.648438 482.128906 129.113281 482.417969 C 128.035156 482.992188 126.886719 483.421875 125.703125 483.496094 C 124.515625 483.566406 123.332031 483.242188 122.363281 482.558594 C 121.394531 481.914062 120.605469 480.941406 120.101562 479.898438 L 119.347656 478.355469 L 119.421875 480.078125 C 119.457031 481.625 119.886719 483.136719 120.640625 484.5 C 121.324219 485.6875 122.292969 486.765625 123.476562 487.484375 C 123.296875 487.84375 123.152344 488.238281 123.046875 488.632812 C 122.902344 489.136719 122.792969 489.675781 122.828125 490.25 C 122.902344 491.363281 123.367188 492.40625 124.15625 493.234375 C 124.015625 493.699219 123.871094 494.132812 123.761719 494.597656 C 123.582031 495.246094 123.441406 495.929688 123.332031 496.613281 C 123.226562 497.292969 123.117188 497.976562 123.082031 498.660156 C 123.046875 499.34375 122.972656 500.0625 122.9375 500.746094 L 122.867188 501.964844 L 124.15625 501.5 C 124.554688 501.355469 124.910156 501.210938 125.269531 500.996094 C 125.628906 500.816406 125.988281 500.566406 126.3125 500.347656 C 126.492188 500.242188 126.636719 500.097656 126.816406 499.988281 C 126.957031 499.847656 127.136719 499.703125 127.28125 499.558594 C 127.460938 499.414062 127.605469 499.234375 127.746094 499.054688 C 127.746094 499.089844 127.785156 499.089844 127.785156 499.128906 C 128.070312 499.773438 128.394531 500.347656 128.789062 500.925781 L 129.398438 501.824219 L 130.367188 501.390625 C 130.65625 501.246094 130.90625 501.140625 131.15625 500.960938 C 131.410156 500.816406 131.695312 500.636719 131.949219 500.492188 C 132.234375 500.3125 132.484375 500.097656 132.738281 499.882812 C 132.988281 500.492188 133.277344 501.105469 133.5625 501.714844 C 133.992188 502.503906 134.496094 503.296875 135.070312 504.015625 C 135.644531 504.734375 136.289062 505.417969 136.972656 506.027344 C 137.65625 506.636719 138.410156 507.214844 139.164062 507.753906 L 139.953125 508.292969 L 140.417969 507.285156 C 140.671875 506.78125 140.886719 506.277344 141.066406 505.738281 C 141.246094 505.199219 141.386719 504.699219 141.53125 504.160156 C 141.675781 503.621094 141.78125 503.082031 141.890625 502.503906 C 141.925781 502.289062 141.960938 502.074219 142 501.859375 C 142.394531 502.253906 142.859375 502.613281 143.328125 502.902344 L 144.042969 503.367188 L 144.726562 502.902344 C 145.371094 502.433594 145.945312 501.929688 146.449219 501.320312 C 146.917969 501.859375 147.417969 502.363281 147.957031 502.863281 C 148.601562 503.476562 149.320312 504.050781 150.039062 504.589844 C 150.757812 505.128906 151.546875 505.632812 152.335938 506.0625 C 153.125 506.496094 153.953125 506.960938 154.777344 507.355469 L 155.421875 507.679688 L 155.890625 506.925781 C 156.464844 505.992188 156.824219 504.914062 157.039062 503.835938 C 157.144531 503.296875 157.21875 502.757812 157.21875 502.183594 C 157.21875 501.785156 157.21875 501.390625 157.183594 500.960938 C 157.542969 501.066406 157.9375 501.140625 158.296875 501.210938 L 159.371094 501.390625 L 159.695312 500.457031 C 159.765625 500.242188 159.839844 499.988281 159.910156 499.773438 C 159.980469 499.523438 160.019531 499.308594 160.089844 499.054688 C 160.089844 499.054688 160.089844 499.019531 160.089844 499.019531 L 160.664062 499.488281 C 161.058594 499.773438 161.453125 500.0625 161.882812 500.3125 C 162.746094 500.816406 163.644531 501.285156 164.613281 501.605469 C 165.546875 501.929688 166.550781 502.183594 167.554688 502.324219 C 168.5625 502.46875 169.566406 502.542969 170.605469 502.542969 L 171.183594 502.542969 L 171.398438 501.859375 C 171.578125 501.210938 171.757812 500.566406 171.828125 499.882812 C 171.933594 499.199219 171.933594 498.515625 171.933594 497.871094 C 171.933594 497.1875 171.863281 496.503906 171.757812 495.855469 C 171.683594 495.355469 171.578125 494.886719 171.433594 494.417969 C 172.257812 494.382812 173.121094 494.277344 173.910156 494.058594 L 174.769531 493.84375 L 174.84375 493.125 C 174.914062 492.660156 174.914062 492.191406 174.949219 491.722656 C 174.949219 491.257812 174.949219 490.789062 174.914062 490.324219 C 174.914062 490.285156 174.914062 490.285156 174.914062 490.25 C 175.523438 490.25 176.171875 490.214844 176.78125 490.144531 C 177.644531 490.035156 178.503906 489.890625 179.328125 489.640625 C 180.15625 489.386719 180.980469 489.101562 181.769531 488.742188 C 182.5625 488.382812 183.351562 487.949219 184.105469 487.484375 L 184.570312 487.195312 L 184.425781 486.511719 C 184.320312 485.9375 184.140625 485.398438 183.925781 484.859375 C 183.710938 484.320312 183.421875 483.816406 183.136719 483.351562 C 182.8125 482.882812 182.488281 482.378906 182.09375 481.984375 C 181.808594 481.695312 181.554688 481.410156 181.234375 481.15625 C 181.949219 481.015625 182.667969 480.761719 183.351562 480.4375 L 183.816406 480.222656 L 183.710938 479.898438 C 183.671875 479.792969 183.636719 479.648438 183.566406 479.539062 C 184.644531 479.539062 185.71875 479.539062 186.796875 479.503906 C 187.945312 479.433594 189.09375 479.324219 190.207031 479.144531 C 191.355469 478.964844 192.46875 478.75 193.582031 478.425781 C 194.695312 478.140625 195.804688 477.78125 196.882812 477.382812 L 200.582031 476.089844 L 196.597656 475.945312 C 196.058594 475.910156 195.484375 475.875 194.945312 475.839844 C 195.519531 474.507812 196.238281 473.289062 197.0625 472.101562 C 198.105469 470.664062 199.324219 469.335938 200.652344 468.113281 C 201.980469 466.890625 203.417969 465.8125 204.960938 464.804688 C 206.46875 463.800781 208.082031 462.828125 209.699219 461.929688 C 212.929688 460.097656 216.230469 458.265625 219.535156 456.359375 C 220.359375 455.894531 221.183594 455.390625 222.011719 454.886719 L 224.414062 453.449219 L 229.261719 450.539062 C 232.492188 448.5625 235.757812 446.550781 238.84375 444.175781 C 240.390625 443.027344 241.898438 441.734375 243.332031 440.402344 C 244.769531 439.074219 246.132812 437.671875 247.425781 436.234375 C 251.515625 431.636719 254.925781 426.566406 257.796875 421.25 C 257.835938 421.394531 257.871094 421.5 257.871094 421.644531 C 258.230469 423.332031 258.515625 425.058594 258.695312 426.820312 C 259.089844 430.304688 259.199219 433.792969 259.019531 437.3125 C 258.804688 440.835938 258.335938 444.320312 257.511719 447.769531 C 256.722656 451.222656 255.609375 454.636719 254.246094 457.941406 C 256.074219 454.851562 257.617188 451.546875 258.804688 448.128906 C 259.378906 446.40625 259.917969 444.679688 260.347656 442.882812 L 260.632812 441.554688 L 260.886719 440.222656 C 261.066406 439.324219 261.171875 438.425781 261.316406 437.527344 C 261.53125 435.730469 261.746094 433.898438 261.820312 432.066406 C 261.890625 430.234375 261.855469 428.402344 261.78125 426.566406 C 261.746094 425.707031 261.675781 424.878906 261.566406 424.015625 C 261.640625 424.015625 261.640625 423.980469 261.675781 423.980469 L 261.746094 423.910156 L 262.035156 423.550781 L 262.574219 422.832031 L 263.648438 421.355469 C 264.367188 420.386719 265.050781 419.378906 265.695312 418.375 C 267.023438 416.363281 268.316406 414.3125 269.535156 412.226562 C 270.757812 410.144531 271.871094 407.988281 272.910156 405.796875 C 273.988281 403.640625 274.957031 401.410156 275.855469 399.148438 C 277.683594 394.65625 279.15625 390.019531 280.339844 385.3125 C 280.734375 383.730469 281.058594 382.183594 281.382812 380.601562 C 282.28125 383.945312 283.105469 387.324219 283.75 390.738281 C 284.9375 397.277344 285.546875 403.960938 285.546875 410.648438 C 285.582031 411.472656 285.546875 412.335938 285.511719 413.164062 C 285.472656 413.988281 285.472656 414.851562 285.4375 415.679688 L 285.292969 418.195312 L 285.222656 419.453125 L 285.113281 420.710938 L 284.898438 423.226562 L 284.578125 425.742188 C 284.539062 426.171875 284.46875 426.566406 284.433594 427 L 284.253906 428.257812 C 284.109375 429.082031 284.003906 429.910156 283.859375 430.738281 C 283.285156 434.042969 282.566406 437.347656 281.742188 440.621094 C 280.914062 443.890625 279.910156 447.125 278.832031 450.324219 C 280.199219 447.230469 281.382812 444.035156 282.457031 440.835938 C 283.535156 437.601562 284.503906 434.332031 285.292969 431.023438 C 285.511719 430.199219 285.652344 429.371094 285.867188 428.542969 L 286.15625 427.285156 C 286.226562 426.855469 286.300781 426.460938 286.40625 426.027344 L 286.875 423.511719 L 287.269531 420.996094 L 287.449219 419.738281 L 287.59375 418.480469 L 287.914062 415.929688 C 287.988281 415.066406 288.058594 414.242188 288.128906 413.378906 C 288.203125 412.515625 288.273438 411.652344 288.308594 410.828125 C 288.667969 403.960938 288.417969 397.097656 287.59375 390.234375 C 287.160156 386.855469 286.585938 383.476562 285.832031 380.136719 C 286.875 375.5 287.628906 370.753906 288.058594 366.011719 C 288.632812 359.578125 288.5625 353.074219 287.949219 346.640625 C 287.664062 343.40625 287.160156 340.207031 286.585938 337.046875 C 285.941406 333.882812 285.222656 330.71875 284.324219 327.59375 C 283.570312 324.96875 282.710938 322.382812 281.777344 319.796875 C 284.71875 323.820312 287.449219 328.023438 289.851562 332.375 C 291.972656 336.148438 293.835938 340.0625 295.488281 344.015625 L 296.710938 347.035156 C 297.105469 348.042969 297.464844 349.050781 297.824219 350.089844 L 298.359375 351.601562 L 298.828125 353.144531 C 299.152344 354.1875 299.472656 355.195312 299.796875 356.238281 L 300.621094 359.363281 C 300.910156 360.40625 301.160156 361.449219 301.410156 362.488281 L 301.769531 364.070312 C 301.878906 364.609375 301.984375 365.113281 302.09375 365.652344 C 302.308594 366.730469 302.523438 367.773438 302.667969 368.851562 C 303.386719 373.089844 303.851562 377.402344 304.105469 381.71875 C 304.570312 390.34375 304.03125 399.003906 302.597656 407.519531 L 301.160156 416.003906 L 306.328125 409.210938 C 309.238281 405.363281 311.859375 401.265625 314.082031 396.992188 C 316.308594 392.714844 318.140625 388.222656 319.609375 383.65625 L 319.898438 382.796875 L 320.148438 381.933594 L 320.652344 380.207031 C 320.9375 379.019531 321.261719 377.871094 321.511719 376.683594 C 322.050781 374.347656 322.445312 371.976562 322.804688 369.570312 C 322.878906 369.066406 322.949219 368.5625 322.984375 368.058594 L 323.128906 368.957031 C 323.773438 373.449219 324.167969 377.980469 324.207031 382.542969 C 324.277344 387.070312 324.027344 391.636719 323.523438 396.164062 C 323.019531 400.691406 322.160156 405.183594 321.082031 409.605469 C 319.96875 414.023438 318.535156 418.375 316.882812 422.613281 C 315.230469 426.855469 313.222656 430.988281 311.03125 435.011719 C 308.804688 439.003906 306.328125 442.882812 303.601562 446.585938 L 302.5625 447.949219 L 301.484375 449.316406 C 300.800781 450.214844 300.046875 451.113281 299.328125 452.011719 C 297.859375 453.773438 296.316406 455.5 294.734375 457.152344 C 301.375 450.789062 307.15625 443.496094 311.929688 435.550781 C 314.296875 431.597656 316.453125 427.464844 318.28125 423.226562 C 318.535156 422.6875 318.714844 422.148438 318.964844 421.609375 L 319.609375 419.992188 C 319.828125 419.453125 320.042969 418.914062 320.257812 418.375 L 320.832031 416.722656 L 321.40625 415.066406 C 321.585938 414.527344 321.800781 413.988281 321.945312 413.414062 L 322.949219 410.070312 C 324.167969 405.578125 325.175781 401.050781 325.820312 396.414062 C 326.46875 391.816406 326.789062 387.144531 326.863281 382.472656 C 326.933594 373.164062 325.785156 363.820312 323.414062 354.761719 Z M 138.15625 453.808594 C 138.15625 453.917969 138.121094 454.023438 138.050781 454.0625 C 138.015625 454.097656 137.941406 454.097656 137.941406 454.097656 C 137.90625 454.097656 137.871094 454.132812 137.835938 454.167969 L 137.691406 454.277344 C 137.65625 454.3125 137.582031 454.347656 137.511719 454.382812 C 137.402344 454.457031 137.261719 454.492188 137.042969 454.492188 C 137.441406 454.277344 137.796875 454.0625 138.15625 453.808594 Z M 142.859375 452.660156 C 143.398438 452.839844 143.9375 453.019531 144.476562 453.199219 C 144.582031 453.234375 144.691406 453.269531 144.796875 453.304688 C 144.617188 453.664062 144.402344 454.023438 144.1875 454.382812 C 143.863281 454.886719 143.46875 455.390625 143.039062 455.820312 C 142.179688 456.683594 141.171875 457.402344 140.023438 457.796875 C 138.875 458.195312 137.617188 458.230469 136.433594 457.871094 C 135.824219 457.691406 135.25 457.402344 134.710938 457.042969 C 134.171875 456.71875 133.707031 456.324219 133.277344 455.859375 C 133.3125 455.859375 133.3125 455.859375 133.347656 455.859375 C 134.496094 455.679688 135.679688 455.320312 136.722656 454.742188 C 136.757812 455.101562 137.007812 455.390625 137.367188 455.535156 C 137.582031 455.605469 137.835938 455.640625 138.085938 455.605469 C 138.335938 455.570312 138.515625 455.460938 138.730469 455.320312 C 138.910156 455.175781 139.089844 454.960938 139.199219 454.707031 C 139.304688 454.457031 139.304688 454.132812 139.199219 453.882812 C 139.125 453.664062 138.945312 453.484375 138.769531 453.378906 C 138.984375 453.199219 139.199219 453.054688 139.414062 452.875 C 139.664062 453.269531 139.773438 453.628906 139.808594 453.953125 C 139.84375 454.3125 139.773438 454.636719 139.628906 454.960938 C 139.484375 455.246094 139.304688 455.535156 139.019531 455.75 C 138.695312 455.964844 138.300781 456.144531 137.726562 456.253906 C 138.085938 456.71875 138.769531 456.9375 139.414062 456.828125 C 140.058594 456.71875 140.671875 456.21875 140.957031 455.570312 C 141.246094 454.921875 141.207031 454.167969 140.851562 453.558594 C 140.5625 453.089844 140.132812 452.804688 139.664062 452.730469 C 139.738281 452.695312 139.808594 452.625 139.878906 452.585938 C 140.167969 452.371094 140.417969 452.191406 140.707031 452.011719 C 140.886719 452.085938 141.027344 452.121094 141.207031 452.191406 C 141.746094 452.300781 142.320312 452.480469 142.859375 452.660156 Z M 115.292969 447.554688 C 114.824219 446.296875 114.609375 444.894531 114.898438 443.710938 C 115.003906 443.097656 115.21875 442.523438 115.507812 441.984375 C 115.792969 441.410156 116.117188 440.90625 116.511719 440.367188 C 116.691406 440.117188 116.90625 439.828125 117.121094 439.578125 C 117.339844 439.289062 117.554688 439.039062 117.769531 438.824219 C 117.984375 438.605469 118.164062 438.425781 118.378906 438.285156 C 118.59375 438.105469 118.882812 437.925781 119.167969 437.707031 C 119.777344 437.277344 120.425781 436.808594 121 436.34375 C 121.609375 435.839844 122.183594 435.335938 122.757812 434.832031 C 123.332031 434.332031 123.835938 433.828125 124.410156 433.289062 C 124.949219 432.75 125.523438 432.210938 126.0625 431.5625 C 126.597656 430.953125 127.136719 430.234375 127.566406 429.480469 C 127.640625 429.335938 127.710938 429.191406 127.785156 429.082031 C 127.820312 429.335938 127.855469 429.585938 127.890625 429.839844 C 127.964844 430.449219 128 431.132812 128.035156 431.777344 C 128.070312 432.425781 128.070312 433.074219 128.070312 433.71875 C 128.035156 434.691406 127.964844 435.695312 127.746094 436.667969 C 127.496094 436.773438 127.28125 436.882812 127.03125 436.953125 C 125.808594 437.527344 124.625 438.175781 123.546875 439.003906 C 122.472656 439.828125 121.464844 440.761719 120.675781 441.914062 C 119.132812 444.25 118.703125 446.980469 119.0625 449.496094 C 119.242188 448.238281 119.597656 447.054688 120.101562 445.9375 C 120.351562 445.398438 120.640625 444.859375 120.964844 444.394531 C 121.285156 443.890625 121.644531 443.457031 122.039062 443.0625 C 123.65625 441.445312 125.84375 440.441406 128.070312 439.757812 C 129.183594 439.398438 130.332031 439.144531 131.445312 439.003906 C 132.019531 438.929688 132.558594 438.894531 133.132812 438.894531 C 133.707031 438.894531 134.28125 438.894531 134.890625 438.929688 C 136.113281 438.964844 137.402344 439.074219 138.695312 439.039062 C 139.34375 439.039062 140.023438 439.039062 140.671875 439.003906 L 141.351562 438.964844 L 141.316406 439.039062 C 140.132812 440.621094 138.875 442.09375 137.511719 443.421875 C 137.152344 443.78125 136.828125 444.070312 136.433594 444.429688 L 135.359375 445.4375 C 135 445.757812 134.640625 446.046875 134.316406 446.335938 C 133.957031 446.585938 133.632812 446.800781 133.277344 447.015625 C 132.917969 447.234375 132.523438 447.375 132.128906 447.519531 C 131.730469 447.664062 131.335938 447.734375 130.90625 447.808594 C 130.476562 447.878906 130.007812 447.914062 129.433594 447.953125 C 128.894531 448.023438 128.214844 448.09375 127.640625 448.382812 C 126.417969 448.886719 125.558594 449.820312 125.019531 450.828125 C 124.695312 451.472656 124.480469 452.15625 124.335938 452.804688 C 123.980469 452.371094 123.621094 451.976562 123.226562 451.582031 L 123.117188 451.472656 L 122.9375 451.402344 C 121.214844 450.863281 119.457031 450.574219 117.660156 450.503906 C 117.554688 450.503906 117.480469 450.503906 117.375 450.503906 C 116.367188 449.605469 115.6875 448.632812 115.292969 447.554688 Z M 121.394531 483.960938 C 120.964844 483.242188 120.605469 482.453125 120.390625 481.625 C 120.855469 482.164062 121.394531 482.667969 121.96875 483.027344 C 123.082031 483.746094 124.410156 484.070312 125.703125 483.960938 C 126.992188 483.855469 128.214844 483.386719 129.292969 482.738281 C 130.367188 482.09375 131.375 481.300781 132.199219 480.332031 C 133.8125 478.390625 134.820312 475.984375 135.140625 473.503906 C 135.25 472.890625 135.320312 472.28125 135.5 471.707031 C 135.679688 471.132812 135.894531 470.554688 136.148438 469.980469 C 136.648438 468.9375 137.261719 467.933594 138.015625 467.035156 C 139.054688 466.78125 140.097656 466.421875 141.027344 465.847656 C 141.101562 465.8125 141.101562 465.742188 141.101562 465.667969 C 141.066406 465.597656 140.992188 465.5625 140.921875 465.597656 C 139.523438 466.316406 137.941406 466.640625 136.363281 466.820312 C 134.785156 466.960938 133.203125 466.925781 131.589844 466.78125 C 129.972656 466.675781 128.429688 466.460938 126.851562 466.207031 C 125.269531 465.957031 123.621094 465.777344 122.003906 465.703125 C 120.390625 465.632812 118.738281 465.597656 117.085938 465.777344 C 116.261719 465.847656 115.398438 465.957031 114.574219 466.207031 C 114.359375 466.28125 114.144531 466.351562 113.929688 466.421875 L 113.355469 466.675781 C 112.957031 466.820312 112.5625 467 112.203125 467.214844 C 111.414062 467.609375 110.660156 468.113281 110.015625 468.722656 C 109.332031 469.335938 108.722656 470.089844 108.292969 470.914062 C 107.898438 471.632812 107.683594 472.460938 107.539062 473.25 C 105.996094 471.632812 104.847656 469.65625 104.273438 467.5 C 104.164062 467.179688 104.128906 466.746094 104.054688 466.351562 C 103.984375 465.957031 103.949219 465.5625 103.949219 465.164062 C 103.914062 464.375 103.914062 463.546875 103.949219 462.757812 C 104.09375 461.175781 104.488281 459.59375 105.207031 458.230469 C 105.921875 456.828125 106.964844 455.640625 108.257812 454.742188 C 109.546875 453.84375 111.054688 453.269531 112.671875 452.875 C 114.285156 452.445312 115.867188 452.226562 117.515625 452.226562 C 119.097656 452.226562 120.675781 452.480469 122.21875 452.910156 C 123.152344 453.703125 123.980469 454.601562 124.625 455.640625 C 124.554688 455.605469 124.480469 455.605469 124.445312 455.570312 C 124.015625 455.425781 123.582031 455.355469 123.152344 455.320312 C 122.757812 455.28125 122.328125 455.246094 121.898438 455.28125 C 121.464844 455.28125 121.070312 455.320312 120.640625 455.425781 C 119.816406 455.570312 119.023438 455.785156 118.269531 456.109375 C 116.761719 456.71875 115.363281 457.582031 114.179688 458.695312 C 115.578125 457.941406 117.050781 457.332031 118.523438 456.898438 C 119.277344 456.683594 120.03125 456.503906 120.785156 456.433594 C 121.144531 456.398438 121.539062 456.359375 121.898438 456.359375 C 122.253906 456.359375 122.613281 456.398438 123.007812 456.433594 C 123.761719 456.503906 124.480469 456.648438 124.839844 457.042969 C 125.019531 457.222656 125.128906 457.546875 125.164062 457.796875 C 125.164062 457.941406 125.128906 458.050781 125.089844 458.085938 C 125.054688 458.15625 124.984375 458.195312 124.875 458.230469 C 124.625 458.300781 124.265625 458.265625 123.90625 458.195312 C 123.726562 458.15625 123.582031 458.085938 123.441406 458.015625 C 123.296875 457.941406 123.1875 457.835938 123.046875 457.691406 C 122.902344 457.546875 122.722656 457.367188 122.507812 457.296875 C 122.292969 457.1875 122.078125 457.152344 121.859375 457.117188 C 121.429688 457.078125 121.035156 457.1875 120.640625 457.332031 C 121.035156 457.296875 121.429688 457.296875 121.789062 457.402344 C 121.96875 457.476562 122.113281 457.546875 122.253906 457.65625 C 122.398438 457.761719 122.507812 457.871094 122.613281 458.050781 C 122.722656 458.230469 122.902344 458.410156 123.082031 458.554688 C 123.261719 458.695312 123.476562 458.804688 123.65625 458.914062 C 124.050781 459.09375 124.515625 459.199219 125.019531 459.128906 C 125.269531 459.09375 125.59375 458.949219 125.808594 458.695312 C 125.84375 458.625 125.917969 458.554688 125.953125 458.480469 C 126.167969 458.984375 126.417969 459.488281 126.707031 459.953125 C 126.921875 460.277344 127.171875 460.601562 127.425781 460.890625 C 127.675781 461.175781 127.925781 461.464844 128.214844 461.714844 C 128.789062 462.253906 129.472656 462.722656 130.222656 463.007812 C 130.976562 463.296875 131.804688 463.40625 132.558594 463.332031 C 133.3125 463.296875 134.066406 463.1875 134.785156 463.117188 C 136.253906 462.972656 137.726562 462.828125 139.164062 462.828125 C 139.878906 462.828125 140.597656 462.902344 141.28125 463.082031 C 141.925781 463.261719 142.535156 463.585938 142.933594 464.085938 C 143.328125 464.589844 143.542969 465.238281 143.578125 465.921875 C 143.648438 466.601562 143.542969 467.285156 143.398438 467.96875 C 143.253906 468.6875 143.039062 469.191406 142.644531 469.65625 C 142.25 470.089844 141.675781 470.554688 141.136719 471.058594 C 140.597656 471.5625 140.023438 472.101562 139.523438 472.675781 C 139.269531 472.964844 139.019531 473.25 138.769531 473.539062 L 138.085938 474.402344 C 137.152344 475.585938 136.253906 476.84375 135.539062 478.210938 C 134.820312 479.578125 134.210938 481.015625 133.8125 482.453125 C 133.597656 483.171875 133.382812 483.78125 133.097656 484.320312 C 132.953125 484.609375 132.773438 484.859375 132.558594 485.074219 C 132.34375 485.328125 132.128906 485.578125 131.875 485.792969 C 130.90625 486.691406 129.6875 487.269531 128.359375 487.449219 C 127.03125 487.589844 125.664062 487.304688 124.410156 486.691406 C 123.1875 486.082031 122.148438 485.148438 121.394531 483.960938 Z M 126.742188 498.625 C 126.527344 498.660156 126.347656 498.730469 126.167969 498.769531 C 125.988281 498.804688 125.773438 498.875 125.59375 498.910156 C 125.199219 499.019531 124.839844 499.128906 124.480469 499.269531 C 124.445312 499.054688 124.445312 498.839844 124.410156 498.625 C 124.375 497.976562 124.335938 497.292969 124.335938 496.648438 C 124.335938 495.964844 124.335938 495.316406 124.375 494.636719 C 124.410156 494.203125 124.410156 493.773438 124.445312 493.378906 C 125.234375 493.558594 126.023438 493.664062 126.851562 493.699219 C 126.851562 493.84375 126.816406 493.988281 126.816406 494.132812 C 126.777344 494.492188 126.777344 494.816406 126.777344 495.175781 C 126.816406 495.855469 126.921875 496.539062 127.066406 497.222656 C 127.171875 497.691406 127.316406 498.121094 127.496094 498.550781 C 127.246094 498.515625 126.992188 498.589844 126.742188 498.625 Z M 132.234375 497.796875 L 130.726562 498.480469 L 130.261719 498.695312 L 129.867188 498.050781 L 128.933594 496.46875 L 127.964844 494.816406 C 127.746094 494.457031 127.566406 494.097656 127.316406 493.738281 C 127.425781 493.738281 127.53125 493.738281 127.675781 493.738281 C 128.789062 493.699219 129.902344 493.519531 130.941406 493.125 C 131.804688 492.839844 132.628906 492.441406 133.417969 491.976562 C 133.347656 492.695312 133.347656 493.414062 133.492188 494.132812 C 133.671875 495.066406 134.03125 496 134.566406 496.792969 C 134.28125 496.898438 133.992188 497.042969 133.742188 497.152344 Z M 140.886719 502.183594 C 140.5625 502.648438 140.3125 503.152344 140.058594 503.65625 C 139.808594 504.160156 139.558594 504.660156 139.34375 505.164062 C 139.269531 505.378906 139.164062 505.597656 139.089844 505.8125 C 138.660156 505.558594 138.230469 505.308594 137.835938 505.019531 C 137.117188 504.519531 136.46875 503.980469 135.824219 503.367188 C 135.214844 502.757812 134.605469 502.109375 134.066406 501.425781 C 133.671875 500.886719 133.277344 500.3125 132.917969 499.738281 C 133.058594 499.628906 133.167969 499.523438 133.3125 499.414062 C 133.742188 498.984375 134.171875 498.550781 134.53125 498.050781 C 134.710938 497.832031 134.855469 497.582031 135 497.332031 C 135.574219 498.085938 136.253906 498.769531 137.082031 499.308594 L 137.941406 499.882812 L 138.769531 499.164062 C 139.089844 498.875 139.414062 498.589844 139.699219 498.265625 C 139.773438 498.515625 139.84375 498.769531 139.917969 498.984375 C 140.132812 499.523438 140.417969 500.0625 140.742188 500.527344 C 140.957031 500.816406 141.171875 501.105469 141.425781 501.390625 C 141.246094 501.605469 141.066406 501.894531 140.886719 502.183594 Z M 145.515625 499.449219 L 144.042969 500.386719 L 143.507812 499.988281 L 142.285156 499.089844 C 141.890625 498.769531 141.460938 498.480469 140.992188 498.15625 C 140.742188 497.976562 140.527344 497.832031 140.277344 497.652344 C 141.101562 496.792969 141.820312 495.855469 142.464844 494.851562 C 143.003906 495.714844 143.648438 496.503906 144.402344 497.152344 C 144.835938 497.511719 145.265625 497.871094 145.765625 498.121094 C 146.089844 498.300781 146.414062 498.480469 146.773438 498.625 C 146.738281 498.625 146.738281 498.660156 146.699219 498.660156 Z M 156.175781 502.003906 C 155.960938 502.46875 155.710938 502.9375 155.496094 503.402344 C 155.171875 504.121094 154.8125 504.804688 154.527344 505.523438 C 153.988281 505.34375 153.449219 505.164062 152.910156 504.914062 C 152.121094 504.589844 151.332031 504.195312 150.578125 503.761719 C 149.824219 503.332031 149.070312 502.902344 148.316406 502.398438 C 147.742188 502.003906 147.167969 501.570312 146.59375 501.140625 C 146.699219 501.03125 146.773438 500.886719 146.878906 500.78125 C 147.167969 500.347656 147.417969 499.917969 147.597656 499.414062 C 147.671875 499.269531 147.707031 499.128906 147.742188 499.019531 C 148.640625 499.308594 149.574219 499.488281 150.542969 499.523438 L 151.367188 499.558594 L 151.90625 498.875 C 152.15625 498.589844 152.371094 498.265625 152.585938 497.941406 C 152.765625 498.230469 152.984375 498.480469 153.234375 498.730469 C 153.664062 499.199219 154.167969 499.59375 154.707031 499.917969 C 155.242188 500.242188 155.816406 500.527344 156.429688 500.746094 C 156.535156 500.78125 156.609375 500.816406 156.714844 500.851562 C 156.535156 501.285156 156.320312 501.644531 156.175781 502.003906 Z M 159.121094 495.929688 C 158.90625 496.359375 158.691406 496.753906 158.472656 497.152344 C 158.257812 497.546875 158.078125 497.976562 157.898438 498.371094 C 157.863281 498.445312 157.828125 498.515625 157.792969 498.589844 C 157.578125 498.550781 157.363281 498.480469 157.144531 498.445312 L 155.566406 498.050781 L 153.914062 497.617188 C 153.628906 497.546875 153.304688 497.472656 152.984375 497.367188 C 153.59375 496.503906 154.132812 495.605469 154.632812 494.671875 C 154.992188 494.023438 155.316406 493.339844 155.601562 492.621094 C 156.714844 493.738281 157.972656 494.707031 159.335938 495.496094 C 159.265625 495.675781 159.191406 495.820312 159.121094 495.929688 Z M 182.488281 470.484375 C 182.453125 470.449219 182.417969 470.449219 182.417969 470.414062 C 183.207031 470.269531 183.960938 470.054688 184.75 469.800781 C 185.144531 470.089844 185.574219 470.304688 186.007812 470.554688 C 186.507812 470.808594 187.011719 471.023438 187.515625 471.238281 C 187.765625 471.3125 187.980469 471.417969 188.230469 471.492188 L 187.335938 471.8125 L 185.683594 472.390625 C 185.324219 472.53125 184.929688 472.675781 184.570312 472.820312 C 184.5 472.675781 184.425781 472.570312 184.320312 472.425781 C 183.816406 471.632812 183.207031 470.988281 182.488281 470.484375 Z M 170.605469 495.929688 L 170.25 497.832031 C 170.140625 498.480469 170.03125 499.089844 169.925781 499.703125 C 169.855469 500.132812 169.78125 500.566406 169.746094 501.03125 C 169.0625 501.105469 168.347656 501.140625 167.628906 501.066406 C 166.695312 501.03125 165.761719 500.886719 164.828125 500.707031 C 163.894531 500.492188 162.996094 500.207031 162.101562 499.847656 C 161.667969 499.667969 161.238281 499.449219 160.808594 499.199219 L 160.054688 498.769531 C 160.125 498.410156 160.160156 498.011719 160.199219 497.652344 C 160.234375 497.152344 160.234375 496.683594 160.160156 496.179688 C 160.160156 496.144531 160.160156 496.109375 160.160156 496.074219 C 160.484375 496.253906 160.84375 496.433594 161.167969 496.574219 L 162.316406 497.113281 L 162.996094 496.109375 C 163.535156 495.28125 164.003906 494.382812 164.324219 493.449219 C 164.46875 493.089844 164.539062 492.730469 164.648438 492.371094 C 165.117188 492.765625 165.582031 493.089844 166.121094 493.378906 C 166.910156 493.773438 167.734375 494.097656 168.597656 494.277344 C 169.351562 494.417969 170.105469 494.527344 170.859375 494.527344 C 170.824219 494.957031 170.714844 495.460938 170.605469 495.929688 Z M 173.765625 488.921875 C 173.621094 489.351562 173.441406 489.785156 173.300781 490.214844 C 173.15625 490.644531 173.011719 491.078125 172.90625 491.507812 C 172.867188 491.652344 172.832031 491.761719 172.796875 491.902344 C 172.257812 491.941406 171.757812 491.976562 171.21875 492.011719 C 170.464844 492.046875 169.710938 492.046875 168.957031 492.046875 C 168.203125 492.046875 167.414062 492.011719 166.621094 491.941406 C 166.40625 491.941406 166.226562 491.902344 166.011719 491.902344 C 165.796875 491.902344 165.617188 491.867188 165.402344 491.867188 C 165.222656 491.867188 165.042969 491.832031 164.828125 491.832031 C 164.898438 491.402344 164.972656 490.96875 165.007812 490.539062 C 165.078125 489.566406 165.042969 488.5625 164.828125 487.589844 C 166.121094 487.988281 167.414062 488.273438 168.742188 488.417969 C 170.5 488.597656 172.257812 488.5625 173.980469 488.273438 C 173.910156 488.453125 173.839844 488.707031 173.765625 488.921875 Z M 181.234375 482.992188 L 181.339844 483.386719 L 181.589844 484.140625 C 181.769531 484.644531 181.949219 485.148438 182.128906 485.652344 C 182.238281 485.972656 182.382812 486.296875 182.523438 486.621094 C 182.058594 486.980469 181.589844 487.339844 181.089844 487.628906 C 180.40625 488.058594 179.652344 488.417969 178.933594 488.777344 C 178.179688 489.101562 177.390625 489.386719 176.601562 489.640625 C 176.027344 489.820312 175.417969 489.925781 174.84375 490.035156 C 174.769531 489.425781 174.664062 488.8125 174.484375 488.203125 C 174.878906 488.128906 175.238281 488.058594 175.632812 487.949219 L 176.207031 487.808594 L 176.421875 487.304688 C 176.816406 486.40625 177.03125 485.507812 177.140625 484.535156 C 177.25 483.601562 177.210938 482.632812 177.03125 481.699219 C 176.996094 481.554688 176.960938 481.410156 176.925781 481.265625 C 177.320312 481.375 177.679688 481.445312 178.074219 481.480469 C 178.683594 481.554688 179.257812 481.519531 179.867188 481.480469 C 180.15625 481.445312 180.40625 481.410156 180.695312 481.375 C 180.800781 481.804688 180.945312 482.238281 181.054688 482.667969 Z M 182.738281 479.613281 C 181.699219 479.683594 180.695312 479.863281 179.6875 480.042969 C 179.152344 480.152344 178.578125 480.296875 178.039062 480.441406 C 177.644531 480.546875 177.25 480.65625 176.851562 480.800781 C 176.671875 480.152344 176.421875 479.542969 176.097656 478.929688 C 178.324219 479.21875 180.621094 479.144531 182.8125 478.714844 C 182.777344 479.039062 182.777344 479.324219 182.738281 479.613281 Z M 189.992188 478.320312 C 188.914062 478.605469 187.800781 478.820312 186.6875 479.039062 C 186.148438 479.144531 185.574219 479.179688 185 479.253906 L 183.421875 479.433594 C 183.316406 479.179688 183.171875 478.929688 182.992188 478.679688 C 183.636719 478.535156 184.320312 478.355469 184.964844 478.175781 L 185.574219 477.996094 L 185.613281 477.382812 C 185.648438 476.664062 185.613281 475.910156 185.46875 475.226562 C 186.078125 475.585938 186.6875 475.875 187.335938 476.164062 C 188.304688 476.558594 189.308594 476.917969 190.3125 477.167969 C 191.066406 477.347656 191.859375 477.492188 192.613281 477.5625 C 191.75 477.816406 190.886719 478.101562 189.992188 478.320312 Z M 189.992188 478.320312 " fill-opacity="1" fill-rule="nonzero"/></g><g fill="#000000" fill-opacity="1"><g transform="translate(339.224372, 415.131503)"><g><path d="M 67.324219 -8.617188 L 41.84375 -78.191406 L 36.597656 -78.191406 L 13.238281 -10.992188 C 11.242188 -5.246094 8.617188 -2.746094 1.25 -1.875 L 1.25 0 C 7.992188 -0.375 17.863281 -0.375 24.730469 0 L 24.730469 -1.875 C 18.359375 -2.871094 14.363281 -4.871094 15.863281 -8.867188 L 21.734375 -26.105469 L 51.335938 -26.105469 L 57.082031 -10.367188 C 58.957031 -5.371094 61.703125 -2.871094 51.210938 -1.875 L 51.210938 0 C 59.703125 -0.375 69.199219 -0.375 77.691406 0 L 77.691406 -1.875 C 68.199219 -2.746094 68.574219 -5.246094 67.324219 -8.617188 Z M 22.734375 -28.851562 L 36.222656 -68.199219 L 50.335938 -28.851562 Z M 22.734375 -28.851562 "/></g></g></g><g fill="#000000" fill-opacity="1"><g transform="translate(415.662044, 415.131503)"><g><path d="M 44.464844 -15.988281 C 44.464844 -27.230469 31.851562 -32.726562 23.605469 -37.222656 C 15.363281 -41.71875 11.242188 -45.214844 11.242188 -51.210938 C 11.242188 -57.082031 15.488281 -61.203125 21.234375 -61.203125 C 28.230469 -61.203125 35.847656 -55.707031 38.472656 -47.589844 L 40.71875 -47.589844 L 39.59375 -62.578125 L 37.347656 -62.578125 C 36.722656 -60.828125 35.722656 -60.078125 34.347656 -60.078125 C 30.851562 -60.078125 28.976562 -63.578125 21.234375 -63.578125 C 10.742188 -63.578125 3.746094 -56.082031 3.746094 -47.714844 C 3.746094 -39.96875 9.492188 -34.472656 19.109375 -29.226562 C 29.726562 -23.480469 36.472656 -19.984375 36.472656 -12.242188 C 36.472656 -5.996094 32.476562 -1.625 25.980469 -1.625 C 18.359375 -1.625 8.117188 -7.742188 6.121094 -16.363281 L 3.496094 -16.363281 L 4.746094 0 L 7.121094 0 C 7.496094 -1.375 8.617188 -2.746094 10.742188 -2.746094 C 15.363281 -2.746094 19.859375 1.125 26.730469 1.125 C 36.472656 1.125 44.464844 -6.621094 44.464844 -15.988281 Z M 44.464844 -15.988281 "/></g></g></g><g fill="#000000" fill-opacity="1"><g transform="translate(460.750195, 415.131503)"><g><path d="M 49.710938 -9.742188 L 49.710938 -42.46875 C 49.710938 -57.582031 48.339844 -63.703125 33.847656 -63.703125 C 18.359375 -63.703125 7.371094 -56.332031 7.371094 -47.839844 C 7.371094 -44.589844 8.867188 -42.59375 11.867188 -42.59375 C 21.609375 -42.59375 12.617188 -60.828125 30.851562 -60.828125 C 41.21875 -60.828125 41.09375 -54.957031 41.09375 -42.71875 L 41.09375 -38.71875 C 9.992188 -31.976562 3.121094 -23.605469 3.121094 -13.738281 C 3.121094 -2 12.742188 1.375 19.609375 1.375 C 30.351562 1.375 38.222656 -6.496094 41.21875 -11.367188 L 41.46875 -11.367188 L 40.84375 -0.75 C 41.34375 0.375 42.09375 1 43.09375 1.375 C 47.839844 0 50.210938 -0.25 56.832031 -0.75 L 56.832031 -2.871094 C 51.960938 -2.5 49.710938 -4.371094 49.710938 -9.742188 Z M 23.855469 -2.746094 C 18.234375 -2.746094 12.617188 -6.246094 12.617188 -14.363281 C 12.617188 -21.234375 15.988281 -30.101562 41.09375 -36.097656 L 41.09375 -15.363281 C 39.71875 -11.992188 32.476562 -2.746094 23.855469 -2.746094 Z M 23.855469 -2.746094 "/></g></g></g><g fill="#000000" fill-opacity="1"><g transform="translate(517.578805, 415.131503)"><g><path d="M 13.738281 -77.441406 C 16.363281 -77.441406 18.734375 -79.566406 18.734375 -82.3125 C 18.734375 -84.808594 16.363281 -87.058594 13.738281 -87.058594 C 11.242188 -87.058594 8.867188 -84.808594 8.867188 -82.3125 C 8.867188 -79.566406 11.242188 -77.441406 13.738281 -77.441406 Z M 18.609375 -6.496094 L 18.609375 -46.839844 C 18.609375 -54.582031 18.609375 -59.328125 19.359375 -61.828125 C 18.859375 -62.953125 18.234375 -63.578125 17.238281 -63.953125 C 13.113281 -61.203125 8.867188 -59.203125 2.871094 -58.082031 L 2.871094 -56.207031 C 7.246094 -56.457031 9.867188 -55.457031 9.867188 -51.460938 L 9.867188 -6.496094 C 9.867188 -3.371094 6.496094 -2.375 2.5 -1.875 L 2.5 0 C 10.242188 -0.625 18.234375 -0.625 25.980469 0 L 25.980469 -1.875 C 22.109375 -2.375 18.609375 -3.371094 18.609375 -6.496094 Z M 18.609375 -6.496094 "/></g></g></g><g fill="#000000" fill-opacity="1"><g transform="translate(343.310377, 479.179868)"><g><path d="M 14.578125 -4.234375 L 5.125 -4.234375 L 3.328125 0 L 0.03125 0 L 8.3125 -18.75 L 11.546875 -18.75 L 19.75 0 L 16.375 0 Z M 13.375 -7.046875 L 9.828125 -15.375 L 6.296875 -7.046875 Z M 13.375 -7.046875 "/></g></g></g><g fill="#000000" fill-opacity="1"><g transform="translate(373.79747, 479.179868)"><g><path d="M 18.734375 0 L 15.5625 0 L 15.5625 -7.765625 L 5.625 -7.765625 L 5.625 0 L 2.46875 0 L 2.46875 -18.75 L 5.625 -18.75 L 5.625 -10.609375 L 15.5625 -10.609375 L 15.5625 -18.75 L 18.734375 -18.75 Z M 18.734375 0 "/></g></g></g><g fill="#000000" fill-opacity="1"><g transform="translate(405.704386, 479.179868)"><g><path d="M 22.296875 0 L 19.375 0 L 19.34375 -14.015625 L 13.421875 -1.953125 L 11.359375 -1.953125 L 5.4375 -14.015625 L 5.4375 0 L 2.46875 0 L 2.46875 -18.75 L 6.21875 -18.75 L 12.40625 -6.296875 L 18.5625 -18.75 L 22.296875 -18.75 Z M 22.296875 0 "/></g></g></g><g fill="#000000" fill-opacity="1"><g transform="translate(441.201027, 479.179868)"><g><path d="M 14.578125 -4.234375 L 5.125 -4.234375 L 3.328125 0 L 0.03125 0 L 8.3125 -18.75 L 11.546875 -18.75 L 19.75 0 L 16.375 0 Z M 13.375 -7.046875 L 9.828125 -15.375 L 6.296875 -7.046875 Z M 13.375 -7.046875 "/></g></g></g><g fill="#000000" fill-opacity="1"><g transform="translate(471.688121, 479.179868)"><g><path d="M 2.46875 -18.75 L 10.15625 -18.75 C 12.957031 -18.75 15.273438 -17.863281 17.109375 -16.09375 C 18.941406 -14.332031 19.859375 -12.09375 19.859375 -9.375 C 19.859375 -6.664062 18.9375 -4.425781 17.09375 -2.65625 C 15.257812 -0.882812 12.921875 0 10.078125 0 L 2.46875 0 Z M 5.625 -15.921875 L 5.625 -2.84375 L 10.234375 -2.84375 C 12.078125 -2.84375 13.609375 -3.453125 14.828125 -4.671875 C 16.054688 -5.898438 16.671875 -7.457031 16.671875 -9.34375 C 16.671875 -11.238281 16.039062 -12.804688 14.78125 -14.046875 C 13.519531 -15.296875 11.960938 -15.921875 10.109375 -15.921875 Z M 5.625 -15.921875 "/></g></g></g><g fill="#000000" fill-opacity="1"><g transform="translate(503.16641, 479.179868)"><g/></g></g><g fill="#000000" fill-opacity="1"><g transform="translate(520.794784, 479.179868)"><g><path d="M 8.625 -18.890625 C 11.050781 -18.890625 13.238281 -18.25 15.1875 -16.96875 L 13.875 -14.171875 C 11.96875 -15.335938 10.140625 -15.921875 8.390625 -15.921875 C 7.441406 -15.921875 6.691406 -15.75 6.140625 -15.40625 C 5.597656 -15.070312 5.328125 -14.585938 5.328125 -13.953125 C 5.328125 -13.328125 5.578125 -12.796875 6.078125 -12.359375 C 6.578125 -11.921875 7.203125 -11.597656 7.953125 -11.390625 C 8.703125 -11.191406 9.515625 -10.9375 10.390625 -10.625 C 11.265625 -10.3125 12.078125 -9.976562 12.828125 -9.625 C 13.585938 -9.28125 14.210938 -8.738281 14.703125 -8 C 15.191406 -7.257812 15.4375 -6.363281 15.4375 -5.3125 C 15.4375 -3.664062 14.78125 -2.347656 13.46875 -1.359375 C 12.15625 -0.378906 10.453125 0.109375 8.359375 0.109375 C 6.929688 0.109375 5.546875 -0.15625 4.203125 -0.6875 C 2.867188 -1.226562 1.703125 -1.957031 0.703125 -2.875 L 2.0625 -5.59375 C 3.007812 -4.71875 4.050781 -4.046875 5.1875 -3.578125 C 6.320312 -3.109375 7.398438 -2.875 8.421875 -2.875 C 9.523438 -2.875 10.382812 -3.070312 11 -3.46875 C 11.613281 -3.875 11.921875 -4.429688 11.921875 -5.140625 C 11.921875 -5.785156 11.671875 -6.328125 11.171875 -6.765625 C 10.671875 -7.203125 10.046875 -7.519531 9.296875 -7.71875 C 8.546875 -7.925781 7.734375 -8.175781 6.859375 -8.46875 C 5.984375 -8.769531 5.171875 -9.085938 4.421875 -9.421875 C 3.671875 -9.753906 3.046875 -10.285156 2.546875 -11.015625 C 2.046875 -11.742188 1.796875 -12.628906 1.796875 -13.671875 C 1.796875 -15.253906 2.421875 -16.519531 3.671875 -17.46875 C 4.921875 -18.414062 6.570312 -18.890625 8.625 -18.890625 Z M 8.625 -18.890625 "/></g></g></g><g fill="#000000" fill-opacity="1"><g transform="translate(548.174349, 479.179868)"><g><path d="M 10.15625 -6.25 L 10.15625 0 L 7.015625 0 L 7.015625 -6.140625 L 0.03125 -18.75 L 3.21875 -18.75 L 8.578125 -9.625 L 13.828125 -18.75 L 17.046875 -18.75 Z M 10.15625 -6.25 "/></g></g></g><g fill="#000000" fill-opacity="1"><g transform="translate(575.95575, 479.179868)"><g><path d="M 14.578125 -4.234375 L 5.125 -4.234375 L 3.328125 0 L 0.03125 0 L 8.3125 -18.75 L 11.546875 -18.75 L 19.75 0 L 16.375 0 Z M 13.375 -7.046875 L 9.828125 -15.375 L 6.296875 -7.046875 Z M 13.375 -7.046875 "/></g></g></g><g fill="#000000" fill-opacity="1"><g transform="translate(606.442855, 479.179868)"><g><path d="M 5.625 0 L 2.46875 0 L 2.46875 -18.75 L 5.625 -18.75 Z M 5.625 0 "/></g></g></g><g fill="#000000" fill-opacity="1"><g transform="translate(625.24996, 479.179868)"><g><path d="M 15.03125 -15.921875 L 5.625 -15.921875 L 5.625 -10.5 L 14.15625 -10.5 L 14.15625 -7.6875 L 5.625 -7.6875 L 5.625 0 L 2.46875 0 L 2.46875 -18.75 L 15.0625 -18.75 Z M 15.03125 -15.921875 "/></g></g></g><g fill="#000000" fill-opacity="1"><g transform="translate(651.370434, 479.179868)"><g><path d="M 18.40625 -18.75 L 18.40625 -7.765625 C 18.40625 -5.316406 17.679688 -3.382812 16.234375 -1.96875 C 14.785156 -0.5625 12.789062 0.140625 10.25 0.140625 C 7.71875 0.140625 5.722656 -0.5625 4.265625 -1.96875 C 2.816406 -3.382812 2.09375 -5.316406 2.09375 -7.765625 L 2.09375 -18.75 L 5.25 -18.75 L 5.25 -7.765625 C 5.25 -6.191406 5.695312 -4.953125 6.59375 -4.046875 C 7.5 -3.148438 8.734375 -2.703125 10.296875 -2.703125 C 11.828125 -2.703125 13.035156 -3.148438 13.921875 -4.046875 C 14.804688 -4.941406 15.25 -6.179688 15.25 -7.765625 L 15.25 -18.75 Z M 18.40625 -18.75 "/></g></g></g><g fill="#000000" fill-opacity="1"><g transform="translate(682.55405, 479.179868)"><g><path d="M 2.46875 -18.75 L 10.15625 -18.75 C 12.957031 -18.75 15.273438 -17.863281 17.109375 -16.09375 C 18.941406 -14.332031 19.859375 -12.09375 19.859375 -9.375 C 19.859375 -6.664062 18.9375 -4.425781 17.09375 -2.65625 C 15.257812 -0.882812 12.921875 0 10.078125 0 L 2.46875 0 Z M 5.625 -15.921875 L 5.625 -2.84375 L 10.234375 -2.84375 C 12.078125 -2.84375 13.609375 -3.453125 14.828125 -4.671875 C 16.054688 -5.898438 16.671875 -7.457031 16.671875 -9.34375 C 16.671875 -11.238281 16.039062 -12.804688 14.78125 -14.046875 C 13.519531 -15.296875 11.960938 -15.921875 10.109375 -15.921875 Z M 5.625 -15.921875 "/></g></g></g><g fill="#000000" fill-opacity="1"><g transform="translate(714.032327, 479.179868)"><g><path d="M 2.46875 -18.75 L 10.15625 -18.75 C 12.957031 -18.75 15.273438 -17.863281 17.109375 -16.09375 C 18.941406 -14.332031 19.859375 -12.09375 19.859375 -9.375 C 19.859375 -6.664062 18.9375 -4.425781 17.09375 -2.65625 C 15.257812 -0.882812 12.921875 0 10.078125 0 L 2.46875 0 Z M 5.625 -15.921875 L 5.625 -2.84375 L 10.234375 -2.84375 C 12.078125 -2.84375 13.609375 -3.453125 14.828125 -4.671875 C 16.054688 -5.898438 16.671875 -7.457031 16.671875 -9.34375 C 16.671875 -11.238281 16.039062 -12.804688 14.78125 -14.046875 C 13.519531 -15.296875 11.960938 -15.921875 10.109375 -15.921875 Z M 5.625 -15.921875 "/></g></g></g><g fill="#000000" fill-opacity="1"><g transform="translate(745.510627, 479.179868)"><g><path d="M 5.625 0 L 2.46875 0 L 2.46875 -18.75 L 5.625 -18.75 Z M 5.625 0 "/></g></g></g><g fill="#000000" fill-opacity="1"><g transform="translate(764.31771, 479.179868)"><g><path d="M 18.734375 0 L 15.625 0 L 5.625 -13.453125 L 5.625 0 L 2.46875 0 L 2.46875 -18.75 L 5.578125 -18.75 L 15.625 -5.28125 L 15.625 -18.75 L 18.734375 -18.75 Z M 18.734375 0 "/></g></g></g></svg>